HIERARCHY
ROOT Hips
{
	OFFSET 0.000000 0.000000 0.000000
	CHANNELS 6 Xposition Yposition Zposition Xrotation Yrotation Zrotation
	JOINT LeftUpLeg_virtual
	{
		OFFSET 0.000000 0.000000 0.000000
		CHANNELS 3 Xrotation Yrotation Zrotation
		JOINT LeftUpLeg
		{
			OFFSET 15.427100 -6.655098 0.678600
			CHANNELS 3 Xrotation Yrotation Zrotation
			JOINT LeftLeg
			{
				OFFSET 4.081073 -39.591068 13.024000
				CHANNELS 3 Xrotation Yrotation Zrotation
				JOINT LeftFoot
				{
					OFFSET -4.081074 -37.707932 -15.979700
					CHANNELS 3 Xrotation Yrotation Zrotation
					JOINT LeftToeBase
					{
						OFFSET 5.346399 -15.068900 20.645000
						CHANNELS 3 Xrotation Yrotation Zrotation
						JOINT LeftToe_End
						{
							OFFSET 2.754700 0.931300 11.300900
							CHANNELS 3 Xrotation Yrotation Zrotation
							End Site
							{
								OFFSET 0 0 0
							}
						}
					}
				}
			}
		}
	}
	JOINT RightUpLeg_virtual
	{
		OFFSET 0.000000 0.000000 0.000000
		CHANNELS 3 Xrotation Yrotation Zrotation
		JOINT RightUpLeg
		{
			OFFSET -15.569500 -6.655098 0.678600
			CHANNELS 3 Xrotation Yrotation Zrotation
			JOINT RightLeg
			{
				OFFSET -4.081825 -39.591045 13.023800
				CHANNELS 3 Xrotation Yrotation Zrotation
				JOINT RightFoot
				{
					OFFSET 4.081824 -37.707954 -15.979600
					CHANNELS 3 Xrotation Yrotation Zrotation
					JOINT RightToeBase
					{
						OFFSET -5.346400 -15.068900 20.645000
						CHANNELS 3 Xrotation Yrotation Zrotation
						JOINT RightToe_End
						{
							OFFSET -2.754700 0.931300 11.300900
							CHANNELS 3 Xrotation Yrotation Zrotation
							End Site
							{
								OFFSET 0 0 0
							}
						}
					}
				}
			}
		}
	}
	JOINT Spine_virtual
	{
		OFFSET 0.000000 0.000000 0.000000
		CHANNELS 3 Xrotation Yrotation Zrotation
		JOINT Spine
		{
			OFFSET -0.279200 12.230698 -2.892100
			CHANNELS 3 Xrotation Yrotation Zrotation
			JOINT Spine1
			{
				OFFSET -0.232667 10.192268 -1.242267
				CHANNELS 3 Xrotation Yrotation Zrotation
				JOINT Spine1_split
				{
					OFFSET -0.232667 10.192268 -1.242267
					CHANNELS 3 Xrotation Yrotation Zrotation
					JOINT Spine2
					{
						OFFSET -0.232667 10.192268 -1.242267
						CHANNELS 3 Xrotation Yrotation Zrotation
						JOINT Neck_virtual
						{
							OFFSET 0.000000 0.000000 0.000000
							CHANNELS 3 Xrotation Yrotation Zrotation
							JOINT Neck
							{
								OFFSET -0.418800 17.814194 8.416900
								CHANNELS 3 Xrotation Yrotation Zrotation
								JOINT Head
								{
									OFFSET 0.000000 7.031097 3.806800
									CHANNELS 3 Xrotation Yrotation Zrotation
									JOINT HeadTop_End
									{
										OFFSET 0.000000 24.646606 12.978600
										CHANNELS 3 Xrotation Yrotation Zrotation
										End Site
										{
											OFFSET 0 0 0
										}
									}
								}
							}
						}
						JOINT LeftShoulder_virtual
						{
							OFFSET 0.000000 0.000000 0.000000
							CHANNELS 3 Xrotation Yrotation Zrotation
							JOINT LeftShoulder
							{
								OFFSET 8.476499 7.247704 -3.868750
								CHANNELS 3 Xrotation Yrotation Zrotation
								JOINT LeftShoulder_split
								{
									OFFSET 8.476499 7.247704 -3.868750
									CHANNELS 3 Xrotation Yrotation Zrotation
									JOINT LeftArm
									{
										OFFSET 9.308998 -2.777710 0.208600
										CHANNELS 3 Xrotation Yrotation Zrotation
										JOINT LeftForeArm
										{
											OFFSET 29.972298 0.000000 0.000000
											CHANNELS 3 Xrotation Yrotation Zrotation
											JOINT LeftHand
											{
												OFFSET 26.026505 0.000000 0.000000
												CHANNELS 3 Xrotation Yrotation Zrotation
												End Site
												{
													OFFSET 0 0 0
												}
											}
										}
									}
								}
							}
						}
						JOINT RightShoulder_virtual
						{
							OFFSET 0.000000 0.000000 0.000000
							CHANNELS 3 Xrotation Yrotation Zrotation
							JOINT RightShoulder
							{
								OFFSET -7.570500 7.247704 -3.868750
								CHANNELS 3 Xrotation Yrotation Zrotation
								JOINT RightShoulder_split
								{
									OFFSET -7.570500 7.247704 -3.868750
									CHANNELS 3 Xrotation Yrotation Zrotation
									JOINT RightArm
									{
										OFFSET -9.308998 -2.777710 0.208500
										CHANNELS 3 Xrotation Yrotation Zrotation
										JOINT RightForeArm
										{
											OFFSET -29.972300 0.000000 0.000000
											CHANNELS 3 Xrotation Yrotation Zrotation
											JOINT RightHand
											{
												OFFSET -26.026505 0.000000 0.000000
												CHANNELS 3 Xrotation Yrotation Zrotation
												End Site
												{
													OFFSET 0 0 0
												}
											}
										}
									}
								}
							}
						}
					}
				}
			}
		}
	}
}
MOTION
Frames: 4
Frame Time: 0.03333333
1.898086 73.053040 -2.400278 0.000000 0.000000 0.000000 -5.178609 -48.817954 -0.190427 -37.277632 4.986091 24.221109 58.508316 -5.677866 3.472751 -18.195272 -7.574870 -16.797877 -4.020286 -0.089520 1.599071 0.000000 0.000000 0.000000 -5.786644 -47.304961 0.574505 -14.561857 -8.594143 -37.040211 56.677299 1.736051 -3.176145 -30.106432 -11.405094 26.076878 0.111660 0.635649 0.800037 0.000000 0.000000 0.000000 -5.034157 -44.756153 0.782884 11.435758 8.327963 -1.378596 1.606888 1.454068 -0.771761 0.615792 -0.200302 0.452059 0.000000 0.000000 0.000000 2.660757 1.036608 -0.608166 -1.663523 11.216669 4.201975 6.827835 18.060465 -4.605836 0.000000 0.000000 0.000000 2.891420 0.856280 -0.676740 1.021070 2.073201 -4.742919 -0.194647 -0.528971 -1.375173 -51.419457 0.486501 -49.562021 -173.940493 -74.344560 -169.955365 0.000000 0.000000 0.000000 2.836569 0.964542 -0.748886 3.201709 12.174641 -6.504607 -2.266169 -1.397280 0.840323 -54.215928 27.124727 85.279659 -177.051740 71.754183 175.429912 0.000000 0.000000 0.000000 
1.981082 73.236168 -2.261978 0.000000 0.000000 0.000000 -4.885170 -48.678673 0.115885 -36.859976 4.925132 24.163317 58.567902 -6.063886 3.459038 -17.774777 -7.436263 -16.819156 -3.942905 -0.104275 1.508158 0.000000 0.000000 0.000000 -5.760227 -47.240484 0.733901 -14.297862 -8.963034 -36.979802 56.471943 1.426962 -3.138502 -30.403921 -11.824808 25.758926 0.526724 0.626830 0.613699 0.000000 0.000000 0.000000 -4.905345 -44.655466 0.736314 11.354911 8.371274 -1.543498 1.527800 1.387305 -0.726189 0.667694 0.442425 0.763182 0.000000 0.000000 0.000000 2.468739 1.040518 -0.584922 -1.799353 11.464643 4.101993 6.493495 18.316035 -4.584664 0.000000 0.000000 0.000000 2.880429 0.835918 -0.579254 1.058017 1.511845 -4.981811 0.434152 -0.719356 -0.714572 -52.033365 1.799166 -49.836667 -178.943607 -74.736394 -175.043555 0.000000 0.000000 0.000000 2.802946 0.945208 -0.681697 3.142239 12.414594 -6.458038 -2.230570 -1.683430 0.509897 -54.260180 27.184100 84.803246 -177.401733 71.238026 175.843193 0.000000 0.000000 0.000000 
2.043323 73.521011 -2.200144 0.000000 0.000000 0.000000 -4.603282 -48.595577 0.437433 -36.254364 5.003082 24.298393 58.409428 -6.995802 3.300802 -17.518148 -7.387150 -16.945095 -3.912424 -0.141882 1.253613 0.000000 0.000000 0.000000 -5.622417 -47.295150 0.904390 -13.925901 -9.259409 -36.733819 55.856293 1.138917 -3.191913 -30.902771 -12.361795 25.001455 0.414161 0.655090 0.361218 0.000000 0.000000 0.000000 -4.558455 -44.946336 0.872720 11.173104 8.507493 -1.804358 1.453158 1.363150 -0.740634 0.426162 0.446488 0.811385 0.000000 0.000000 0.000000 2.258105 1.134675 -0.626456 -1.829284 11.896241 4.036533 6.330930 18.818583 -4.190494 0.000000 0.000000 0.000000 2.904737 0.915215 -0.519614 0.977489 0.684736 -5.150990 1.003209 0.235546 0.464492 -53.325814 4.141748 -49.411914 177.063474 -73.541644 -179.274735 0.000000 0.000000 0.000000 2.662796 1.036506 -0.654157 3.149812 12.640792 -5.960695 -2.354967 -2.057958 0.184233 -54.526978 27.997179 84.032644 -178.222967 70.474759 176.742729 0.000000 0.000000 0.000000 
2.142442 73.855835 -2.144703 0.000000 0.000000 0.000000 -4.333731 -48.846532 0.688039 -35.445089 5.467351 24.621877 57.982890 -8.179858 2.935478 -17.624687 -7.188766 -17.009174 -3.965288 -0.211289 0.919374 0.000000 0.000000 0.000000 -5.311846 -47.799569 1.093884 -13.790483 -9.361772 -36.398058 54.953790 1.025058 -3.289596 -31.169647 -12.802480 23.861570 -0.241472 0.684611 0.208630 0.000000 0.000000 0.000000 -4.013367 -45.874446 1.252484 10.841615 8.698096 -2.086528 1.386621 1.410648 -0.820519 0.133185 0.092703 0.722138 0.000000 0.000000 0.000000 2.051334 1.313706 -0.713397 -1.778340 12.390209 4.020357 6.408808 19.778898 -3.653402 0.000000 0.000000 0.000000 2.836530 1.091468 -0.556267 0.875771 -0.046767 -5.053457 1.525914 1.698590 1.551639 -54.416025 6.495979 -48.561006 176.160045 -71.683177 179.315415 0.000000 0.000000 0.000000 2.466753 1.218341 -0.718490 3.175069 12.800069 -5.070107 -2.423171 -2.085479 -0.107492 -54.997380 29.594277 83.209565 -179.065772 69.644878 177.681716 0.000000 0.000000 0.000000 
